<svg id="Layer_1" data-name="Layer 1" xmlns="http://www.w3.org/2000/svg" xmlns:xlink="http://www.w3.org/1999/xlink" viewBox="0 0 464.53 284.11"><defs><style>.cls-1{fill:#58595b;opacity:0.6;}.cls-2{fill:url(#linear-gradient);}.cls-3{fill:url(#linear-gradient-2);}.cls-4{fill:url(#linear-gradient-3);}.cls-5{fill:#fed8b6;}.cls-6{fill:url(#linear-gradient-4);}.cls-7{fill:url(#linear-gradient-5);}.cls-8{fill:url(#linear-gradient-6);}.cls-9{fill:url(#linear-gradient-7);}.cls-10{fill:url(#linear-gradient-8);}.cls-11{fill:url(#linear-gradient-9);}.cls-12{fill:url(#linear-gradient-10);}.cls-13{fill:url(#linear-gradient-11);}.cls-14{fill:url(#linear-gradient-12);}.cls-15{fill:url(#linear-gradient-13);}.cls-16{fill:url(#linear-gradient-14);}.cls-17{fill:url(#linear-gradient-15);}.cls-18{fill:url(#linear-gradient-16);}.cls-19{fill:url(#linear-gradient-17);}.cls-20{fill:url(#linear-gradient-18);}.cls-21{fill:url(#linear-gradient-19);}.cls-22{fill:url(#linear-gradient-20);}.cls-23{fill:url(#linear-gradient-21);}.cls-24{fill:url(#linear-gradient-22);}.cls-25{fill:url(#linear-gradient-23);}</style><linearGradient id="linear-gradient" x1="-6909.86" y1="-565.69" x2="-6909.86" y2="-428.22" gradientTransform="translate(-5397.71 4271.37) rotate(139.86)" gradientUnits="userSpaceOnUse"><stop offset="0" stop-color="#2a307c"/><stop offset="0.1" stop-color="#22296b"/><stop offset="0.29" stop-color="#182055"/><stop offset="0.48" stop-color="#111945"/><stop offset="0.71" stop-color="#0c153b"/><stop offset="1" stop-color="#0b1438"/></linearGradient><linearGradient id="linear-gradient-2" x1="-4858.98" y1="-1554.52" x2="-4858.98" y2="-1417.04" gradientTransform="translate(75.57 5332.9) rotate(74.84)" xlink:href="#linear-gradient"/><linearGradient id="linear-gradient-3" x1="-3276.87" y1="129.83" x2="-3276.87" y2="73.81" gradientTransform="translate(3394.86 542.6) rotate(7.05)" gradientUnits="userSpaceOnUse"><stop offset="0" stop-color="#fcd1c2"/><stop offset="0.39" stop-color="#fccfc0"/><stop offset="0.59" stop-color="#fbc8b8"/><stop offset="0.75" stop-color="#fabdaa"/><stop offset="0.88" stop-color="#f9ad98"/><stop offset="1" stop-color="#f79980"/></linearGradient><linearGradient id="linear-gradient-4" x1="-3314.16" y1="117.27" x2="-3239.58" y2="117.27" gradientTransform="translate(3394.86 542.6) rotate(7.05)" xlink:href="#linear-gradient"/><linearGradient id="linear-gradient-5" x1="-3250.74" y1="84.42" x2="-3250.74" y2="-30.31" gradientTransform="translate(3394.86 542.6) rotate(7.05)" xlink:href="#linear-gradient"/><linearGradient id="linear-gradient-6" x1="-3067.66" y1="295.23" x2="-3075.09" y2="290.94" gradientTransform="translate(3249.07 -441.41) rotate(-4.32)" gradientUnits="userSpaceOnUse"><stop offset="0" stop-color="#e1b691"/><stop offset="1" stop-color="#ef9367"/></linearGradient><linearGradient id="linear-gradient-7" x1="-3027.38" y1="313.1" x2="-3052.52" y2="298.58" gradientTransform="translate(3262.33 -433.36) rotate(-4.32)" xlink:href="#linear-gradient-3"/><linearGradient id="linear-gradient-8" x1="-3030.63" y1="295.85" x2="-3077.01" y2="269.07" gradientTransform="translate(3262.33 -433.36) rotate(-4.32)" xlink:href="#linear-gradient-3"/><linearGradient id="linear-gradient-9" x1="157.54" y1="279.27" x2="227.33" y2="279.27" gradientTransform="matrix(-1, 0.08, 0.08, 1, 408.43, -217.38)" xlink:href="#linear-gradient"/><linearGradient id="linear-gradient-10" x1="-3045.24" y1="290.71" x2="-3057.39" y2="283.7" gradientTransform="translate(3262.33 -433.36) rotate(-4.32)" xlink:href="#linear-gradient-3"/><linearGradient id="linear-gradient-11" x1="223.88" y1="432.37" x2="130.65" y2="339.15" gradientTransform="matrix(-1, 0.08, 0.08, 1, 408.43, -217.38)" gradientUnits="userSpaceOnUse"><stop offset="0" stop-color="#6d64ac"/><stop offset="0.02" stop-color="#6e66ad"/><stop offset="0.46" stop-color="#7e93cb"/><stop offset="0.8" stop-color="#87afdd"/><stop offset="1" stop-color="#8bb9e4"/></linearGradient><linearGradient id="linear-gradient-12" x1="260.79" y1="192.51" x2="299.97" y2="151.91" gradientTransform="matrix(1, 0, 0, 1, 0, 0)" xlink:href="#linear-gradient-11"/><linearGradient id="linear-gradient-13" x1="-60.65" y1="472.91" x2="-81.42" y2="550.22" gradientTransform="translate(97.94 -324.63) rotate(-19.36)" xlink:href="#linear-gradient-3"/><linearGradient id="linear-gradient-14" x1="147.87" y1="338.45" x2="196.12" y2="338.45" gradientTransform="translate(-31.69 -184.34) rotate(-4.32)" gradientUnits="userSpaceOnUse"><stop offset="0" stop-color="#1c174b"/><stop offset="0.18" stop-color="#1f1b50"/><stop offset="0.41" stop-color="#26255f"/><stop offset="0.65" stop-color="#323777"/><stop offset="0.91" stop-color="#445099"/><stop offset="1" stop-color="#4b5aa8"/></linearGradient><linearGradient id="linear-gradient-15" x1="152.05" y1="336.86" x2="188.8" y2="336.86" gradientTransform="translate(-31.69 -184.34) rotate(-4.32)" gradientUnits="userSpaceOnUse"><stop offset="0.05" stop-color="#f8f2f8"/><stop offset="0.23" stop-color="#f4f0f7"/><stop offset="0.41" stop-color="#e9ebf6"/><stop offset="0.58" stop-color="#d5e2f3"/><stop offset="0.75" stop-color="#bad6ef"/><stop offset="0.92" stop-color="#97c7ea"/><stop offset="1" stop-color="#84bee7"/></linearGradient><linearGradient id="linear-gradient-16" x1="-81.92" y1="493.69" x2="-89.44" y2="465.54" gradientTransform="translate(97.94 -324.63) rotate(-19.36)" xlink:href="#linear-gradient-3"/><linearGradient id="linear-gradient-17" x1="-4104.59" y1="-1916.71" x2="-4113.23" y2="-1838.46" gradientTransform="translate(4621.52 1267.21) rotate(-10.62)" xlink:href="#linear-gradient-3"/><linearGradient id="linear-gradient-18" x1="260.62" y1="179.48" x2="208.15" y2="133.66" gradientTransform="matrix(1, 0, 0, 1, 0, 0)" xlink:href="#linear-gradient-11"/><linearGradient id="linear-gradient-19" x1="-5753.5" y1="-746.1" x2="-5759.64" y2="-804.23" gradientTransform="translate(-1662.28 5794.52) rotate(99.6)" xlink:href="#linear-gradient-3"/><linearGradient id="linear-gradient-20" x1="-5790.74" y1="-758.42" x2="-5721.68" y2="-758.42" gradientTransform="translate(-1662.28 5794.52) rotate(99.6)" xlink:href="#linear-gradient"/><linearGradient id="linear-gradient-21" x1="-5749.33" y1="-794.36" x2="-5761.73" y2="-911.6" gradientTransform="translate(-1662.28 5794.52) rotate(99.6)" xlink:href="#linear-gradient"/><linearGradient id="linear-gradient-22" x1="368.89" y1="74.62" x2="368.89" y2="126.34" gradientUnits="userSpaceOnUse"><stop offset="0" stop-color="#f9fcfd"/><stop offset="0.01" stop-color="#f8fbfd"/><stop offset="0.18" stop-color="#e2e9f5"/><stop offset="0.36" stop-color="#d5def1"/><stop offset="0.51" stop-color="#d0daef"/></linearGradient><linearGradient id="linear-gradient-23" x1="367.7" y1="222.66" x2="367.7" y2="361.76" xlink:href="#linear-gradient-22"/></defs><title>login</title><path class="cls-1" d="M477.79,276.86c0,8.44-104,15.29-232.27,15.29S13.26,285.3,13.26,276.86s104-15.3,232.26-15.3S477.79,268.41,477.79,276.86Z" transform="translate(-13.26 -8.05)"/><path class="cls-2" d="M181.39,133.56c16.64,11.74,30.68,27.12,44,42.41C232,183.57,251.89,215,258,223.08c11.48,15.27,6.11,15-14.41,26a22.52,22.52,0,0,1-8.36,2.55c-34.45,3.5-50.35-41.64-60.7-65.91-4.5-10.54-9.36-23.57-13.18-34.37C164.28,132.07,181.39,133.56,181.39,133.56Z" transform="translate(-13.26 -8.05)"/><path class="cls-3" d="M171.88,249.54c17.68-10.13,37.54-16.36,57-22,9.68-2.79,46.59-7.53,56.46-9.62,18.68-3.95,16.2.82,17.46,24a22.51,22.51,0,0,1-1.23,8.65c-11.37,32.7-59,28.06-85.38,27.19-11.45-.38-25.31-1.47-36.72-2.57C163.31,264.42,171.88,249.54,171.88,249.54Z" transform="translate(-13.26 -8.05)"/><path class="cls-4" d="M165,256.9a24,24,0,0,0-.82-5.18c-.1-.48-.8-5.17-.75-5.68.78-7.42,5-27.61,5-27.61l-20.34-3.21s.37,18.07-4,28h0c-9.73,3.7-26.78,8.07-26.78,8.07s-18.61.34-19.63.62a17.06,17.06,0,0,0-6.53,2.69s-2.8,4.39,19.4,11.25c0,0,9.51,3.58,25.62,3.38l10.36.58c3.55.2,14.12,1.38,15.64.57a4.08,4.08,0,0,0,1.3-1.05C165.85,266.43,165,260.44,165,256.9Z" transform="translate(-13.26 -8.05)"/><path class="cls-5" d="M157.11,233.75c.25,1.16.45,2.34.6,3.52.56-1.05,1.09-2.1,1.62-3.17Z" transform="translate(-13.26 -8.05)"/><path class="cls-6" d="M164.2,251.72c-.06-.28-.32-2-.51-3.44-.84.31-1.67.6-2.48.87-9.31,3.11-18.65,1.31-27.65-2l-.48-.21c-8,2.42-15.7,4.39-15.7,4.39s-18.61.34-19.63.62a17.06,17.06,0,0,0-6.53,2.69s-2.8,4.39,19.4,11.25c0,0,9.51,3.58,25.62,3.38l10.36.58c3.55.2,14.12,1.38,15.64.57a4.08,4.08,0,0,0,1.3-1.05c2.31-2.94,1.43-8.93,1.48-12.47A24,24,0,0,0,164.2,251.72Z" transform="translate(-13.26 -8.05)"/><path class="cls-7" d="M170.84,133.41h-.16a17.57,17.57,0,0,0-18,15.91c-2.16,22.53-5.21,55.9-6.94,74.93l21,4a399.24,399.24,0,0,0,14-57.61,309.88,309.88,0,0,0,3.11-31c.06-1.58-2.54-4.31-2.46-6C177.12,133,175.46,133.55,170.84,133.41Z" transform="translate(-13.26 -8.05)"/><polygon class="cls-8" points="207.53 74.33 211.41 86.08 204.64 88.31 207.53 74.33"/><path class="cls-9" d="M241.3,93.63c.22,3.83,1.16,26.39,1.16,26.39,2.51,2.44,13.79,2.54,18.21-1.81,3.52-3.47,3.7-6.36,3.7-6.36L260.51,79.1Z" transform="translate(-13.26 -8.05)"/><path class="cls-10" d="M257,54.33,259.09,66l3.22,17.72.91,5c-9.93,20.24-28.64,23.71-35.24,17.7s-12.15-42.74-12.15-42.74Z" transform="translate(-13.26 -8.05)"/><path class="cls-11" d="M255.71,106S239,76.77,234.38,74.58s-19.35,2.5-28.22-8.8-4.46-17.64-1.39-18.46,9.75,10.28,19.54,2.62c10-7.78,31.37-9.4,35.29-1.3,0,0,13.49.35,12,18.84s-5.43,34.21-9.8,35.91Z" transform="translate(-13.26 -8.05)"/><path class="cls-12" d="M244.49,73.67c4.89,3.36,5.5,14.08-3,20.66l-5-17.3C236.82,74.29,241.27,71.47,244.49,73.67Z" transform="translate(-13.26 -8.05)"/><path class="cls-13" d="M262.94,112.63c-12.72,1.5-32.73,5.23-36.42,19.9-2,7.82-1.69,16.18-.28,24.07,1.1,6.19,2.11,12.4,2.84,18.65,1.24,10.56,2.72,22.45-.17,32.87L217,230s57.91,25.55,86.62-8.29c0,0-1.82-84.27-15.28-104-1.64-2.41-5.74-3.47-8.32-4.11A47.49,47.49,0,0,0,262.94,112.63Z" transform="translate(-13.26 -8.05)"/><path class="cls-14" d="M288.32,117.68c-1.64-2.41-5.74-3.48-8.32-4.11a45.74,45.74,0,0,0-12.92-1.26V239c12.77-1,26.11-5,36.52-17.3C303.6,221.68,301.78,137.41,288.32,117.68Z" transform="translate(-13.26 -8.05)"/><path class="cls-15" d="M158.34,144.62s1.37,10.9,7.76,18.21,13.68,10.2,19.66,17.92c4.71,6.06,51.53,51,56.29,34.6.63-2.14-.15-4.43-1-6.49-7.95-19.36-27.3-27.55-44.22-37.74l-6.41-4.29s-2.79-11-9.56-17.11Z" transform="translate(-13.26 -8.05)"/><path class="cls-16" d="M157.38,116.2,141,134.68a1,1,0,0,0,.08,1.42l31.08,28.14a1,1,0,0,0,1.44-.07l16.05-17.69a1,1,0,0,0-.05-1.42l-30.8-28.93A1,1,0,0,0,157.38,116.2Z" transform="translate(-13.26 -8.05)"/><path class="cls-17" d="M145,135.18l24.38,22.14,13.06-14.39-24.11-22.84Z" transform="translate(-13.26 -8.05)"/><path class="cls-18" d="M172.86,163s2.14-1.29,1.26-5.35-2.75-13.63-2.75-13.63,0-3.42,1.39-2.67,4.28,2.87,5.41,8.81c0,0,1.17,5.11,2.49,6.42A17.57,17.57,0,0,1,186,167.15S176.4,170.4,172.86,163Z" transform="translate(-13.26 -8.05)"/><path class="cls-19" d="M244.06,215.11c2-2.63,2.26-6.35,2.39-10.28.32-9.56.79-19.11,1.21-28.67.19-4.25.38-8.51.52-12.77.29-8.69.88-21.47-10.5-23.55-2.59-.47-6,1.44-7.57,3.21a11.38,11.38,0,0,0-2.41,5.26c-1,4.43-.7,9.91-.91,13.75-.44,7.88-.74,15.79-.79,23.71,0,5.1,0,10.2.27,15.3.22,4.21.08,9.52,2,13.45,2.06,4.2,7.14,4.83,10.92,3.75A8.76,8.76,0,0,0,244.06,215.11Z" transform="translate(-13.26 -8.05)"/><path class="cls-20" d="M253.09,180.55c-1.57-11.8.08-54.21-16.82-55.94-18.7-1.91-15.07,56.45-15.07,56.45Z" transform="translate(-13.26 -8.05)"/><path class="cls-21" d="M50.74,278.22a23.63,23.63,0,0,0,5-1.69c.46-.18,5-1.67,5.47-1.7,7.45-.5,28.07.25,28.07.25l-.31-20.59s-17.74,3.43-28.3.83v0c-5.31-9-16.83-21.17-16.83-21.17s-3.91-10-4.35-10.93,2.75-3.27.16-5.93c0,0-.51-13.79-3.49,9.26,0,0-5.41,9.56-2.47,25.39q.6,5.16,1.19,10.32c.41,3.52,1,14.14,2.11,15.5a4.07,4.07,0,0,0,1.25,1.11C41.49,280.66,47.24,278.77,50.74,278.22Z" transform="translate(-13.26 -8.05)"/><path class="cls-22" d="M55.6,276.57a57.12,57.12,0,0,1-.34-15.5A31.65,31.65,0,0,1,58,250.71c-4.79-9-9.92-20.38-9.92-20.38s-3.64-13.1-4.08-14.05a17.26,17.26,0,0,0-3.76-6s-4.67-7.21-7.65,15.84c0,0-1.92,10,1,25.82q.6,5.16,1.19,10.32c.41,3.52,1,14.14,2.11,15.5a4.07,4.07,0,0,0,1.25,1.11c3.29,1.77,9-.12,12.54-.67A22.85,22.85,0,0,0,55.6,276.57Z" transform="translate(-13.26 -8.05)"/><path class="cls-23" d="M79.29,275c24.27,3.39,77.57,8,107.67-2.27,4.73-1.61,9.81-6.42,10.34-11.63.41-4-1.26-9.92-4.72-12.35-2.87-2-12.35-2.68-15.66-2.53-9.35.42-69.06,5.18-97.28,7.45Z" transform="translate(-13.26 -8.05)"/><path class="cls-24" d="M334.38,131.4a58.41,58.41,0,1,1,69,0h25.48a76.47,76.47,0,1,0-120,0Z" transform="translate(-13.26 -8.05)"/><path class="cls-25" d="M447.48,102.56H287.92a11.55,11.55,0,0,0-11.55,11.55v151.2a11.55,11.55,0,0,0,11.55,11.55H447.48A11.55,11.55,0,0,0,459,265.31V114.11A11.55,11.55,0,0,0,447.48,102.56Zm-67.36,80.09v43.59a5.87,5.87,0,0,1-5.87,5.87H363.54a5.87,5.87,0,0,1-5.87-5.87V182.65a23.16,23.16,0,0,1-12.21-20.32A23.69,23.69,0,0,1,368.19,139a23.43,23.43,0,0,1,24.14,23.43A23.17,23.17,0,0,1,380.12,182.65Z" transform="translate(-13.26 -8.05)"/></svg>